<svg enable-background="new 0 0 1200 1200" viewBox="0 0 1200 1200" xmlns="http://www.w3.org/2000/svg" xmlns:xlink="http://www.w3.org/1999/xlink"><clipPath id="a"><circle cx="600" cy="600" r="600"/></clipPath><linearGradient id="b" gradientUnits="userSpaceOnUse" x1="-100" x2="1300" y1="-100" y2="1300"><stop offset="0" stop-color="#555464"/><stop offset=".2739" stop-color="#323041"/><stop offset=".362" stop-color="#282635"/><stop offset=".5189" stop-color="#1b1a26"/><stop offset=".7061" stop-color="#13131e"/><stop offset="1" stop-color="#11111b"/></linearGradient><linearGradient id="c" gradientUnits="userSpaceOnUse" x1="310.1451" x2="889.8549" y1="310.0352" y2="889.7451"><stop offset="0" stop-color="#a4cccf"/><stop offset=".5173" stop-color="#87bcbf"/><stop offset="1" stop-color="#68aaaf"/></linearGradient><linearGradient id="d" gradientUnits="userSpaceOnUse" x1="582.8185" x2="986.5347" y1="257.4591" y2="661.1754"><stop offset="0" stop-color="#f47e5c"/><stop offset=".04753447" stop-color="#f87750"/><stop offset=".1291" stop-color="#fc6e43"/><stop offset=".2339" stop-color="#fe693b"/><stop offset=".4421" stop-color="#ff6839"/><stop offset=".6004" stop-color="#ff6135"/><stop offset=".8298" stop-color="#ff4e2b"/><stop offset="1" stop-color="#ff3b21"/></linearGradient><g clip-path="url(#a)"><path clip-rule="evenodd" d="m-200 0h1600v1200h-1600z" fill="url(#b)" fill-rule="evenodd"/><path clip-rule="evenodd" d="m-119.5 771.2h.1c9.2 0 17.3-6.1 19.9-15 38-127.8 156.3-221.1 296.5-221.1 35.7 0 70 6 101.9 17.2 27.8 9.7 58.7 2.3 78.4-19.5 91.8-101.7 224.7-165.7 372.5-165.7 139.9 0 266.5 57.3 357.5 149.7 15.4 15.6 37.2 23 59 20.5 15.7-1.7 31.6-2.5 47.8-2.2 203.6 3.5 367.1 172.9 363.5 376.5-3.5 201.3-167.8 363.4-370.1 363.4-40.1 0-78.7-6.4-114.9-18.2-11.4-3.7-23.9-1.2-33.3 6.3-85.3 66.9-192.7 106.9-309.6 106.9-172 0-323.8-86.5-414.1-218.5-9-13.1-25.5-19.1-40.7-14-30.8 10.3-63.7 15.8-97.9 15.8-52.3 0-101.5-13-144.7-35.9-13-6.9-28.7-5.5-40.1 3.8-35.6 29-81.6 45.9-131.5 44.1-101.5-3.6-184.6-85-189.9-186.4-5.9-113.6 77.2-207.7 189.7-207.7z" fill="#4d4d5d" fill-rule="evenodd" opacity=".3"/><path clip-rule="evenodd" d="m-159.3 448h.1c9.2 0 17.3-6.1 19.9-15 37.9-127.8 156.3-221.1 296.5-221.1 35.7 0 70 6 101.9 17.2 27.8 9.7 58.7 2.3 78.4-19.5 91.9-101.7 224.7-165.7 372.5-165.7 139.9 0 266.5 57.3 357.5 149.7 15.4 15.6 37.2 23 59 20.5 15.7-1.7 31.6-2.5 47.8-2.2 203.6 3.5 367.1 172.9 363.5 376.5-3.5 201.3-167.8 363.4-370.1 363.4-40.1 0-78.7-6.4-114.9-18.2-11.4-3.7-23.9-1.2-33.3 6.3-85.3 66.9-192.7 106.9-309.6 106.9-172 0-323.8-86.5-414.1-218.5-9-13.1-25.5-19.1-40.7-14-30.8 10.3-63.7 15.8-97.9 15.8-52.3 0-101.5-13-144.7-35.9-13-6.9-28.7-5.5-40.1 3.8-35.6 29-81.6 45.9-131.5 44.1-101.5-3.6-184.6-85-189.9-186.4-5.9-113.6 77.3-207.7 189.7-207.7z" fill="#4d4d5d" fill-rule="evenodd" opacity=".15"/><image height="49" opacity=".3" overflow="visible" transform="translate(376 532)" width="52" xlink:href="CC369029D8F8E23E.png"/><circle clip-rule="evenodd" cx="399.5" cy="553.5" fill="#4d4d5d" fill-rule="evenodd" r="9.5"/><image height="91" opacity=".1" overflow="visible" transform="translate(354 508)" width="91" xlink:href="CC369029D8F8E23D.png"/><image height="91" opacity=".15" overflow="visible" transform="translate(354 508)" width="91" xlink:href="CC369029D8F8E23A.png"/><image height="41" opacity=".3" overflow="visible" transform="translate(835 454)" width="42" xlink:href="CC369029D8F8E235.png"/><circle clip-rule="evenodd" cx="853.5" cy="471.5" fill="#4d4d5d" fill-rule="evenodd" r="5.5"/><image height="83" opacity=".1" overflow="visible" transform="translate(812 430)" width="83" xlink:href="CC369029D8F8E234.png"/><image height="83" opacity=".15" overflow="visible" transform="translate(812 430)" width="83" xlink:href="CC369029D8F8E233.png"/><image height="41" opacity=".3" overflow="visible" transform="translate(442 562)" width="42" xlink:href="CC369029D8F8E248.png"/><circle clip-rule="evenodd" cx="460.5" cy="579.5" fill="#4d4d5d" fill-rule="evenodd" r="5.5"/><image height="83" opacity=".1" overflow="visible" transform="translate(419 538)" width="83" xlink:href="CC369029D8F8E24A.png"/><image height="83" opacity=".15" overflow="visible" transform="translate(419 538)" width="83" xlink:href="CC369029D8F8E24E.png"/><circle cx="600" cy="599.9" fill="url(#c)" r="409.9"/><g fill="#68aaaf"><path d="m609.4 1010-.6-.3c-.2 0-.4 0-.7 0z" opacity=".2"/><path d="m963.2 409.7c-36.5-68.9-89.3-123.5-151.4-161.5-12.9-7.8-26.3-14.8-40.1-21.2 0 0 4.9 18.3 22.5 30.9s39.5 11.3 36.7 27.7-8.2 8.2-13.7 26-16.4 42.4 10.9 47.8c27.3 5.5 71.9 53.4 57.4 76.5s18.8 30.4 25.8 43.9-1 6.1-3.8 26.9 25.9 37.9 42.3 56.7c16.4 18.7 20.8 12.7 38.4-4.8l18.2-17.3c-6.7-45.1-21.1-89.3-43.2-131.6z" opacity=".2"/><path d="m587.3 973.5c1.8-12.9-.9-18.3 13.4-37.5s85.7-44.2 99.9-57.6c14.2-13.5 6.2-35 16.3-46.1s26.3 2.6 39.4-7.7c13.1-10.2 31.7-79.7 31.7-79.7l19.7-26.5c4.5-6 3.3-14.6-2.8-19.1 0 0-18-22-39.1-29.3s-39-18.6-61.5-21.1-5.9-35.6-27.9-47.1c-21.9-11.5-53.8-1-53.8-1l-64.4-25.9s-50.9-22.7-68.2-17.3-39.4 21.1-39.4 21.1-21.2.9-26.9-6.7c-5.7-7.7 9.3-15.5 3.8-30.7s-29.8-32.7-29.8-32.7l-51.9 7.7s-10.4-14.4-11.5-31.7 14.7-29 30.7-47.1c16-18 49.4-23.7 68.2-20.2s16.6 32.9 25.9 34.6 9.3-2.4 14.8-14.7-8.2-23.2-4.1-39.6 61.9-96.7 84.2-98.9 42.4 17 54.9 14.9 17.5 6.6 21.1-18.2c3.7-24.8-16.8-38.5-34.6-42.6s-41.3-8.8-43.2-20.8 6.9-13.6 8.6-23.1c1.8-9.4-18.7-15-18.7-15-124.1 17.3-230.4 90.2-293 192.8 0 0 2.4 48.5 6.3 70s8.9 33 26.9 47.1 41 42.1 54.7 45.1c13.8 3.1 8.2-6.2 19.2-7.7s43.8 25.9 45.1 42.3c1.4 16.3 32.7 18.2 32.7 18.2s15.2-5.6 28.8 10.6c13.7 16.2-5.5 78.1 0 101.8s20 46.7 34.6 55.7 33.3 13.4 45.1 26.9 14.5 21.3 12.5 41.3-11.4 122.3-6.7 130.6 5.5 26.7 15.4 29.8c9.8 3.1 45.1 11.5 45.1 11.5l-21.1-11.5c.5.1-2.2-12-.4-24.9z" opacity=".2"/><path d="m928.3 684.1s-36.5-16.1-40.9 8.8-7.3 26.3-23.4 27.8-1.5 27.8 33.6 36.5c35.1 8.8 36.5-19 49.7-46.8s-7.3-27.8-19-26.3z" opacity=".3"/></g><image height="527" opacity=".07" overflow="visible" transform="translate(136 447)" width="582" xlink:href="83E2D60C5BF8B299.png"/><path d="m174.8 525.8c8.1-18.8 32.1-39 50.8-43.9 130.7-32.5 261.3-32.5 392 0 18.7 4.9 42.6 25.1 50.8 43.9 38.4 92.2 38.4 184.5 0 276.7-8.1 18.8-32.1 39-50.8 43.9-19.6 4.9-39.2 9-58.8 12.4v76.9c0 14.8-17 23.1-28.7 14l-101.4-79c-67.7.6-135.4-7.5-203.1-24.3-18.7-4.9-42.6-25.1-50.8-43.9-38.4-92.2-38.4-184.4 0-276.7z" fill="#fff"/><path d="m468.9 724.5-9.1-24h-77.8l-9.1 24.5c-3.6 9.6-6.6 16-9.1 19.4-2.5 3.3-6.7 5-12.4 5-4.9 0-9.2-1.8-12.9-5.3-3.7-3.6-5.6-7.6-5.6-12.1 0-2.6.4-5.3 1.3-8.1s2.3-6.6 4.3-11.6l48.9-124.1c1.4-3.6 3.1-7.8 5-12.8 2-5 4-9.1 6.3-12.5 2.2-3.3 5.1-6 8.7-8s8.1-3.1 13.4-3.1c5.4 0 9.9 1 13.5 3.1 3.6 2 6.5 4.7 8.7 7.9s4.1 6.7 5.6 10.4 3.5 8.6 5.8 14.8l49.9 123.4c3.9 9.4 5.9 16.2 5.9 20.5 0 4.4-1.8 8.5-5.5 12.2s-8.1 5.5-13.4 5.5c-3 0-5.7-.5-7.8-1.6-2.2-1.1-4-2.6-5.5-4.4-1.5-1.9-3.1-4.7-4.8-8.6-1.7-4.1-3.1-7.5-4.3-10.5zm-76.7-53h57.1l-28.8-78.9z" fill="#bf4e2b"/><path d="m459.9 718.1-9.1-24h-77.7l-9.1 24.5c-3.6 9.6-6.6 16-9.1 19.4-2.5 3.3-6.7 5-12.4 5-4.9 0-9.2-1.8-12.9-5.3-3.7-3.6-5.6-7.6-5.6-12.1 0-2.6.4-5.3 1.3-8.1s2.3-6.6 4.3-11.6l48.9-124.1c1.4-3.6 3.1-7.8 5-12.8 2-5 4-9.1 6.3-12.5 2.2-3.3 5.1-6 8.7-8s8.1-3.1 13.4-3.1c5.4 0 9.9 1 13.5 3.1 3.6 2 6.5 4.7 8.7 7.9s4.1 6.7 5.6 10.4 3.5 8.6 5.8 14.8l49.9 123.4c3.9 9.4 5.9 16.2 5.9 20.5 0 4.4-1.8 8.5-5.5 12.2s-8.1 5.5-13.4 5.5c-3 0-5.7-.5-7.8-1.6-2.2-1.1-4-2.6-5.5-4.4-1.5-1.9-3.1-4.7-4.8-8.6-1.7-4.1-3.2-7.5-4.4-10.5zm-76.7-53h57.1l-28.8-78.9z" fill="#ff6839"/><image height="527" opacity=".07" overflow="visible" transform="translate(492 236)" width="582" xlink:href="83E2D60C5BF8B29E.png"/><path d="m531.7 314.8c8.1-18.8 32.1-39 50.8-43.9 130.7-32.5 261.3-32.5 392 0 18.7 4.9 42.6 25.1 50.8 43.9 38.4 92.2 38.4 184.5 0 276.7-8.1 18.8-32.1 39-50.8 43.9-19.6 4.9-39.2 9-58.8 12.4v76.9c0 14.8-17 23.1-28.7 14l-101.4-79c-67.7.6-135.4-7.5-203.1-24.3-18.7-4.9-42.6-25.1-50.8-43.9-38.4-92.3-38.4-184.5 0-276.7z" fill="url(#d)"/><path d="m877.6 410.9c7.9 0 15.2-7.2 15.2-15.2s-7.2-15.2-15.2-15.2h-84v-26.1c0-7.9-7.2-15.2-15.2-15.2s-15.2 7.2-15.2 15.2v26.1h-84c-7.9 0-15.2 7.2-15.2 15.2s7.2 15.2 15.2 15.2h49.8c2.9 13.1 10.8 39.9 29.8 67.6-20 20.4-45.4 35-75.4 43.5-3.8.9-7.1 3.4-9.1 7.1-1.8 3.3-2.5 7.3-1.8 10.9l.1.3c1.6 6.5 7.8 11 15 11h3.4l.9-.3c34.4-9.8 63.4-26.5 86.5-49.5 23.1 23.1 52.2 39.7 86.5 49.5l.9.3h3.4c5.9 0 11.5-3.8 14.4-9.6l.4-.8.2-.9c.7-3.6.1-7.6-1.8-10.9-2-3.7-5.4-6.2-9.1-7.1-30.2-8.4-54.9-22.6-75.4-43.5 19-27.7 26.8-54.5 29.8-67.6zm-84.5 0c-2.7 9.8-8.2 25.5-18.5 42.4-11.1-18-16-33.4-18.1-42.4z" fill="#bf4e2b"/><path d="m871.2 400.6c7.9 0 15.2-7.2 15.2-15.2 0-7.9-7.2-15.2-15.2-15.2h-84v-26.1c0-7.9-7.2-15.2-15.2-15.2-7.9 0-15.2 7.2-15.2 15.2v26.1h-84c-7.9 0-15.2 7.2-15.2 15.2 0 7.9 7.2 15.2 15.2 15.2h49.7c2.9 13.1 10.8 39.9 29.8 67.6-20 20.4-45.4 35-75.4 43.5-3.8.9-7.1 3.4-9.1 7.1-1.8 3.3-2.5 7.3-1.8 10.9l.1.3c1.6 6.5 7.8 11 15 11h3.4l.9-.3c34.4-9.8 63.4-26.5 86.5-49.5 23.1 23.1 52.2 39.7 86.5 49.5l.9.3h3.4c5.9 0 11.5-3.8 14.4-9.6l.4-.8.2-.9c.7-3.6.1-7.6-1.8-10.9-2-3.7-5.4-6.2-9.1-7.1-30.2-8.4-54.9-22.6-75.4-43.5 19-27.7 26.8-54.5 29.8-67.6zm-80.7 0c-2.7 9.8-8.2 25.5-18.5 42.4-11.1-18-16-33.4-18.1-42.4z" fill="#fff"/></g></svg>